<!--?xml version="1.0" encoding="utf-8"?-->
<!-- Generator: Adobe Illustrator 18.1.1, SVG Export Plug-In . SVG Version: 6.00 Build 0)  -->

<svg version="1.1" id="_x32_" xmlns="http://www.w3.org/2000/svg" xmlns:xlink="http://www.w3.org/1999/xlink" x="0px" y="0px" viewBox="0 0 512 512" style="width: 48px; height: 48px; opacity: 1;" xml:space="preserve">
<style type="text/css">
	.st0{fill:#4B4B4B;}
</style>
<g>
	<path class="st0" d="M256.003,81.21c-54.694-0.016-104.383,22.219-140.211,58.063c-35.864,35.828-58.091,85.524-58.076,140.212
		c-0.016,54.703,22.212,104.39,58.076,140.21c35.828,35.86,85.516,58.096,140.211,58.079
		c54.712,0.017,104.383-22.219,140.212-58.079c35.843-35.82,58.087-85.508,58.07-140.21c0.016-54.687-22.227-104.383-58.07-140.212
		C360.386,103.429,310.714,81.195,256.003,81.21z M416.438,279.485c0,44.373-17.93,84.361-46.974,113.452
		c-29.108,29.068-69.088,46.982-113.461,46.991c-44.373-0.008-84.352-17.922-113.445-46.991
		c-29.076-29.091-46.994-69.079-46.994-113.452c0-44.366,17.918-84.354,46.994-113.453c29.092-29.052,69.072-46.974,113.445-46.974
		c44.374,0,84.353,17.922,113.461,46.974C398.508,195.132,416.438,235.12,416.438,279.485z" style="fill: rgb(44, 62, 80);"></path>
	<path class="st0" d="M184.33,21.984C168.145,2.924,142.139-4.62,118.263,2.835C96.368,10.718,79.52,22.776,66.33,33.59
		l-6.482-7.657c4.443-3.771,4.992-10.45,1.212-14.917c-3.78-4.458-10.467-4.992-14.909-1.212L29.998,23.503
		c-4.442,3.78-4.991,10.459-1.212,14.917c3.78,4.45,10.467,5,14.909,1.22l6.664,7.842C39.181,57.926,27.268,71.05,17.705,88.189
		c-11.242,22.339-8.028,49.227,8.158,68.304l14.409,16.96L198.724,38.962L184.33,21.984z" style="fill: rgb(44, 62, 80);"></path>
	<path class="st0" d="M494.313,88.189c-9.579-17.147-21.492-30.272-32.678-40.723l6.647-7.826c4.459,3.78,11.13,3.23,14.926-1.22
		c3.78-4.458,3.23-11.138-1.212-14.917L465.843,9.804c-4.459-3.78-11.146-3.246-14.926,1.212c-3.78,4.467-3.214,11.146,1.228,14.917
		l-6.486,7.641c-13.19-10.807-30.045-22.857-51.918-30.74c-23.874-7.455-49.881,0.088-66.05,19.149l-14.425,16.977L471.73,173.454
		l14.393-16.96C502.309,137.416,505.54,110.528,494.313,88.189z" style="fill: rgb(44, 62, 80);"></path>
	<path class="st0" d="M85.63,493.556c-1.583,2.278-1.114,5.387,1.082,7.084l13.278,10.274c2.18,1.704,5.33,1.365,7.107-0.744
		l37.076-41.586l-26.475-20.474L85.63,493.556z" style="fill: rgb(44, 62, 80);"></path>
	<path class="st0" d="M394.291,448.109l-26.459,20.474l37.056,41.586c1.793,2.108,4.942,2.447,7.123,0.744l13.278-10.274
		c2.181-1.696,2.649-4.806,1.066-7.084L394.291,448.109z" style="fill: rgb(44, 62, 80);"></path>
	<path class="st0" d="M256.003,153.085c5.411,0,9.789-4.386,9.789-9.797c0-5.411-4.378-9.781-9.789-9.781
		c-5.412,0-9.772,4.37-9.772,9.781C246.23,148.7,250.591,153.085,256.003,153.085z" style="fill: rgb(44, 62, 80);"></path>
	<path class="st0" d="M256.003,405.9c-5.412,0-9.772,4.386-9.772,9.797c0,5.412,4.361,9.781,9.772,9.781
		c5.411,0,9.789-4.369,9.789-9.781C265.792,410.286,261.414,405.9,256.003,405.9z" style="fill: rgb(44, 62, 80);"></path>
	<path class="st0" d="M166.61,190.116c3.828-3.82,3.828-10.015,0-13.851c-3.828-3.82-10.014-3.812-13.843,0
		c-3.812,3.828-3.812,10.014,0,13.851C156.596,193.936,162.782,193.928,166.61,190.116z" style="fill: rgb(44, 62, 80);"></path>
	<path class="st0" d="M345.38,368.878c-3.813,3.828-3.813,10.015,0,13.852c3.828,3.828,10.015,3.812,13.843,0
		c3.828-3.821,3.828-10.016,0-13.852C355.394,365.057,349.208,365.073,345.38,368.878z" style="fill: rgb(44, 62, 80);"></path>
	<path class="st0" d="M119.798,269.72c-5.412,0-9.793,4.378-9.793,9.781s4.382,9.781,9.793,9.781c5.411,0,9.789-4.378,9.804-9.781
		C129.603,274.098,125.21,269.72,119.798,269.72z" style="fill: rgb(44, 62, 80);"></path>
	<path class="st0" d="M392.208,289.282c5.395,0,9.772-4.378,9.772-9.781s-4.378-9.781-9.772-9.781c-5.411,0-9.806,4.378-9.806,9.781
		S386.797,289.282,392.208,289.282z" style="fill: rgb(44, 62, 80);"></path>
	<path class="st0" d="M152.784,368.885c-3.828,3.836-3.813,10.031-0.017,13.851c3.829,3.82,10.015,3.828,13.86-0.007
		c3.828-3.821,3.812-10.016,0-13.844C162.815,365.073,156.612,365.073,152.784,368.885z" style="fill: rgb(44, 62, 80);"></path>
	<path class="st0" d="M345.395,176.273c-3.828,3.828-3.812,10.031,0,13.843c3.813,3.82,10.016,3.828,13.844,0
		c3.828-3.82,3.812-10.015,0-13.843C355.427,172.46,349.224,172.453,345.395,176.273z" style="fill: rgb(44, 62, 80);"></path>
	<path class="st0" d="M328.079,267.944l-60.276-1.276l-2.383-82.124c0-5.194-4.216-9.402-9.418-9.402
		c-5.185,0-9.385,4.208-9.385,9.402l-2.746,94.013c0,6.703,5.444,12.147,12.131,12.147l72.076-1.51
		c5.864,0,10.628-4.765,10.628-10.636C338.708,272.692,333.943,267.944,328.079,267.944z" style="fill: rgb(44, 62, 80);"></path>
</g>
</svg>
